<svg width="73" height="60" viewBox="0 0 73 60" fill="none" xmlns="http://www.w3.org/2000/svg">
<path d="M27.5972 0.0886078C25.8334 0.507286 24.3369 2.38688 23.8291 4.84549C22.8136 9.78054 25.5573 15.5886 29.2095 16.2032C31.0713 16.515 32.8529 15.4728 33.7972 13.513C34.2693 12.5331 34.5187 11.6334 34.6702 10.3596C35.1067 6.54693 32.9598 1.73659 30.2429 0.444929C29.361 0.0262527 28.4078 -0.107368 27.5972 0.0886078Z" fill="#02273A"/>
<path d="M43.6673 0.0885944C42.1618 0.38256 40.5138 1.88802 39.5072 3.90123C39.044 4.82766 38.5184 6.46674 38.3403 7.55352C38.1265 8.89863 38.2066 10.9475 38.5184 12.1055C39.2222 14.6265 40.5673 16.0072 42.5538 16.2388C45.0391 16.5328 47.6046 14.2167 48.7537 10.6357C49.0655 9.65581 49.1546 9.19259 49.2615 8.07018C49.3506 7.01904 49.2615 5.6472 49.0299 4.64059C48.2816 1.41589 46.1437 -0.401346 43.6673 0.0885944Z" fill="#02273A"/>
<path d="M16.0521 10.8584C14.6001 11.0722 13.4242 12.355 13.0412 14.1633C12.7561 15.4995 13.059 17.584 13.7538 19.0894C14.805 21.3788 16.8182 23.2495 18.5998 23.5969C20.8981 24.0512 22.7955 22.5725 23.232 20.007C23.4012 19.0004 23.3122 18.0027 22.938 16.6932C22.1274 13.905 19.8648 11.4374 17.6823 10.9653C16.9875 10.8139 16.5599 10.7872 16.0521 10.8584Z" fill="#02273A"/>
<path d="M55.4526 10.8673C54.161 11.0544 52.5753 12.159 51.4618 13.6555C49.6624 16.0874 49.1012 19.5081 50.1613 21.6193C50.9808 23.2762 52.8158 24.0601 54.5796 23.5256C56.5839 22.9109 58.5259 20.871 59.3811 18.4747C59.9245 16.9515 60.0759 15.3837 59.8087 14.092C59.4434 12.3104 58.2943 11.1167 56.6819 10.8584C56.3969 10.8049 56.1296 10.7782 56.0762 10.7782C56.0316 10.7871 55.7466 10.8228 55.4526 10.8673Z" fill="#02273A"/>
<path d="M35.4541 18.4035C33.236 18.644 30.8041 19.7664 28.4613 21.646C27.4457 22.4566 25.5661 24.3629 24.6397 25.5121C22.6621 27.9885 21.6288 30.0017 21.1923 32.2555C20.2035 37.3419 23.5886 41.5911 28.6305 41.5911C29.744 41.5911 30.8842 41.3862 32.6302 40.8784C34.2515 40.3974 35.1066 40.2549 36.3092 40.2549C37.4584 40.2549 38.5362 40.4241 39.7299 40.7804C41.8411 41.4218 42.7408 41.5911 44.0503 41.5911C47.3552 41.5911 50.1523 39.8362 51.2747 37.0658C51.6578 36.1215 51.7736 35.5158 51.8181 34.2865C51.8537 33.3868 51.827 32.8879 51.7201 32.3C51.1945 29.5385 49.3595 26.5187 46.4198 23.5969C45.146 22.323 43.7652 21.1739 42.6963 20.4701C40.3178 18.9201 37.6811 18.163 35.4541 18.4035Z" fill="#02273A"/>
<path d="M0 54.5078V59.7635H1.02442H2.04885V58.0264V56.2894H3.36723C5.30027 56.2894 6.11981 56.0399 6.92154 55.2026C8.15084 53.9287 8.06176 51.4701 6.74337 50.2586C5.80803 49.3945 5.16665 49.252 2.20919 49.252H0V54.5078ZM4.56982 51.2474C5.01522 51.4078 5.24683 51.6216 5.4428 52.058C5.64769 52.4945 5.6566 53.0647 5.47844 53.5011C5.13993 54.3118 4.70344 54.4988 3.18907 54.5078H2.04885V52.8152V51.1227H3.14453C3.82154 51.1316 4.35602 51.1762 4.56982 51.2474Z" fill="#02273A"/>
<path d="M21.6378 49.2877C21.6199 49.3055 21.611 49.7509 21.6289 50.2675L21.6556 51.2118H23.0809H24.4972V55.4876V59.7635H25.5662H26.6352V55.4876V51.2118H28.105H29.5748V50.2319V49.252H25.6286C23.455 49.252 21.6556 49.2698 21.6378 49.2877Z" fill="#02273A"/>
<path d="M51.6665 54.5078V59.7635H52.6909H53.7154V58.5787V57.4029L54.1608 56.8862L54.5972 56.3695L54.811 56.708C54.9268 56.8951 55.399 57.6612 55.8533 58.4006L56.6906 59.7635H57.8398H58.9889L58.8464 59.5408C58.7662 59.425 58.4901 58.9707 58.2317 58.5431C57.9645 58.1155 57.3855 57.1623 56.9222 56.4408L56.1027 55.1135L56.361 54.8374C56.5036 54.677 57.0737 54 57.626 53.323L58.6148 52.1026H57.4389H56.2541L55.007 53.6793L53.7599 55.256L53.7332 52.254L53.7154 49.252H52.6909H51.6665V54.5078Z" fill="#02273A"/>
<path d="M17.638 51.1672V52.1025H16.9699H16.3018V52.9043V53.706H16.961H17.6291L17.6558 56.129C17.6825 58.7746 17.7003 58.8459 18.2437 59.4338C18.6713 59.8882 19.9362 60.0752 21.023 59.8436L21.4684 59.7456V58.9261V58.0976L21.0052 58.1867C20.4262 58.2936 19.9095 58.1155 19.7759 57.768C19.7313 57.6433 19.6868 56.6902 19.6868 55.6479L19.669 53.7505L20.5687 53.7238L21.4684 53.6971V52.9043V52.1025H20.5776H19.6868V51.1672V50.2319H18.6624H17.638V51.1672Z" fill="#02273A"/>
<path d="M11.3311 52.0135C10.3334 52.2273 9.33566 52.9399 8.88135 53.7773C8.18652 55.0511 8.20434 56.9663 8.90807 58.1956C9.65635 59.5051 11.242 60.1999 12.8721 59.9416C14.0213 59.7634 14.9744 59.131 15.5 58.2135C15.9365 57.4652 15.9276 57.4474 14.7874 57.4474H13.8075L13.6115 57.7502C13.3086 58.2135 12.9701 58.3738 12.2931 58.3738C11.9368 58.3738 11.6072 58.3114 11.4469 58.2313C10.948 57.964 10.5828 57.4295 10.467 56.7971L10.4046 56.4675H13.1305H15.8563V55.7727C15.8563 54.5166 15.4822 53.5991 14.6805 52.8597C14.3598 52.5658 13.9856 52.3163 13.6739 52.2005C13.1038 51.9867 11.9101 51.8888 11.3311 52.0135ZM12.9523 53.706C13.3532 53.902 13.6561 54.2939 13.7897 54.7928L13.8788 55.1224L12.1951 55.1491C10.3423 55.1758 10.3779 55.1936 10.6184 54.6235C11.0371 53.6525 12.0348 53.2517 12.9523 53.706Z" fill="#02273A"/>
<path d="M37.5474 52.0224C36.906 52.1204 36.2201 52.441 35.8193 52.833C35.4629 53.1804 35.0977 53.9109 35.0977 54.285V54.5522L36.042 54.5344L36.9862 54.5166L37.1376 54.2316C37.3425 53.8218 37.6899 53.5991 38.1977 53.5456C38.7322 53.5011 39.1865 53.6347 39.4626 53.9287C39.7032 54.187 39.81 54.864 39.6319 55.0155C39.5606 55.0689 38.946 55.1758 38.26 55.256C36.7635 55.4163 36.2112 55.5767 35.7034 55.9597C35.1066 56.414 34.875 56.9129 34.875 57.7146C34.875 58.4807 35.071 58.9528 35.5609 59.3626C36.6299 60.2712 38.6787 60.1643 39.5606 59.1577L39.819 58.8637V59.318V59.7634H40.8077H41.7876L41.7609 56.8861L41.7342 54.0178L41.4848 53.51C41.1641 52.8508 40.6474 52.4143 39.9348 52.1916C39.2488 51.9778 38.26 51.9066 37.5474 52.0224ZM39.7299 56.7792C39.7299 57.4474 39.4804 57.9195 39.0172 58.16C38.3046 58.5252 37.4049 58.4718 37.102 58.0442C36.9238 57.7859 36.9328 57.2692 37.1287 57.0376C37.3603 56.7436 37.6276 56.6367 38.5629 56.4675C39.81 56.2359 39.7299 56.2091 39.7299 56.7792Z" fill="#02273A"/>
<path d="M45.8761 52.0491C43.7204 52.5123 42.5089 54.6948 43.0701 57.0821C43.2572 57.8571 43.5867 58.4272 44.1569 58.9706C44.7359 59.5229 45.3594 59.808 46.2502 59.9416C47.0252 60.0574 47.5419 60.004 48.3258 59.7545C49.3324 59.4249 50.152 58.5965 50.4548 57.5988L50.5795 57.1801H49.5462H48.504L48.3258 57.5186C47.9962 58.1333 46.954 58.4361 46.2057 58.1244C45.8405 57.9729 45.3951 57.4741 45.2436 57.0287C45.1724 56.8327 45.1189 56.3517 45.1278 55.8885C45.1278 54.9442 45.3505 54.383 45.8583 53.991C46.1166 53.7951 46.2859 53.7505 46.8025 53.7238C47.3459 53.6971 47.4796 53.7238 47.7468 53.902C47.916 54.0178 48.1477 54.2939 48.2724 54.5344L48.4773 54.9531H49.5017H50.5172L50.4548 54.6146C50.1252 52.6994 48.1031 51.5592 45.8761 52.0491Z" fill="#02273A"/>
<path d="M62.0889 52.0135C60.3519 52.3431 59.3096 53.4655 59.0424 55.2916C58.7662 57.1534 59.6214 58.8994 61.1447 59.6209C62.5433 60.2801 64.3783 60.0485 65.4829 59.0686C65.8481 58.739 66.4539 57.7948 66.4539 57.5453C66.4539 57.483 66.1243 57.4474 65.4295 57.4474C64.8593 57.4474 64.405 57.483 64.405 57.5275C64.405 57.768 63.9062 58.1689 63.443 58.3025C62.3027 58.641 61.2961 57.9818 61.0734 56.7525L61.0289 56.4675H63.7993H66.5697L66.5162 55.6836C66.3737 53.412 65.1622 52.1114 63.0688 51.9689C62.7481 51.9511 62.3116 51.9689 62.0889 52.0135ZM63.6033 53.6882C63.9596 53.8663 64.3783 54.4275 64.4585 54.8373L64.5119 55.1224L62.8105 55.1491C60.8685 55.1758 60.9487 55.2203 61.3585 54.4186C61.5456 54.0445 61.6881 53.8841 61.991 53.7327C62.472 53.4833 63.1579 53.4655 63.6033 53.6882Z" fill="#02273A"/>
<path d="M32.8264 52.1828C32.479 52.3342 31.802 52.9934 31.802 53.1716C31.802 53.225 31.7664 53.2606 31.7307 53.2606C31.6951 53.2606 31.6773 53.0023 31.6951 52.6816L31.7307 52.1026H30.6974H29.6641V55.933V59.7635H30.6885H31.7129V57.6879C31.7129 56.521 31.7574 55.4787 31.8109 55.2828C32.0247 54.4899 32.8086 54.0089 33.7618 54.0802L34.2962 54.1158V53.0647V52.0135H33.7439C33.3965 52.0135 33.0491 52.0759 32.8264 52.1828Z" fill="#02273A"/>
<path d="M70.8188 52.254C70.5159 52.4055 70.2219 52.6549 70.0438 52.8865L69.7498 53.2784V52.6905V52.1026H68.7699H67.79V55.933V59.7635H68.761H69.732L69.7676 57.5543C69.7943 55.4787 69.8033 55.3362 69.9903 54.9799C70.3645 54.294 70.9257 54.0178 71.8521 54.0802L72.4311 54.1158L72.4044 53.0825L72.3777 52.058L71.8432 52.0313C71.4067 52.0135 71.2196 52.0491 70.8188 52.254Z" fill="#02273A"/>
</svg>
